<?xml version="1.0" encoding="UTF-8"?><svg xmlns="http://www.w3.org/2000/svg" viewBox="0 0 421.92 365.4"><defs><style>.f{fill:#a7a9ac;}.g{stroke:#231f20;stroke-miterlimit:10;}.g,.h{fill:#fff;}.i{fill:#f48356;}.j{fill:#f7da4a;}.k{fill:#be1e2d;}.l,.h{font-family:MyriadPro-Regular, Myriad Pro;font-size:14.86px;}.l,.m{fill:#231f20;}.n{fill:#6d6e71;}.o{fill:#f05157;}.p{fill:#e6e7e8;}.q{fill:#414042;}</style></defs><g id="a"/><g id="b"><g id="c"><polygon class="g" points="105.77 364.9 .58 182.7 105.77 .5 316.16 .5 421.35 182.7 316.16 364.9 105.77 364.9"/></g><g id="d"><g><polygon class="k" points="212.27 181.97 315.51 3.15 418.76 181.97 212.27 181.97"/><path class="p" d="M315.51,4.6l101.99,176.65H213.52L315.51,4.6m0-2.9l-104.5,181h209L315.51,1.7h0Z"/></g><g><polygon class="j" points="107.67 362.98 210.91 184.15 314.16 362.98 107.67 362.98"/><path class="p" d="M210.91,185.6l101.99,176.65H108.92l101.99-176.65m0-2.9l-104.5,181h209l-104.5-181h0Z"/></g><g><polygon class="m" points="3.17 181.97 106.41 3.15 209.66 181.97 3.17 181.97"/><path class="p" d="M106.41,4.6l101.99,176.65H4.42L106.41,4.6m0-2.9L1.91,182.7H210.91L106.41,1.7h0Z"/></g><polygon class="i" points="2.01 182.7 106.51 363.7 211.01 182.7 2.01 182.7"/><g><polygon class="f" points="212.27 183.42 418.76 183.42 315.51 362.25 212.27 183.42"/><path class="p" d="M417.51,184.15l-101.99,176.65-101.99-176.65h203.98m2.51-1.45h0Zm0,0H211.01l104.5,181,104.5-181h0Z"/></g><g><polygon class="o" points="107.67 2.42 314.16 2.42 210.91 181.25 107.67 2.42"/><path class="o" d="M312.9,3.15l-101.99,176.65L108.92,3.15h203.98m2.51-1.45h0Zm0,0H106.41l104.5,181L315.41,1.7h0Z"/></g><path class="q" d="M231.03,147.85l20.12,34.85-20.12,34.85h-40.24l-20.12-34.85,20.12-34.85h40.24m.84-1.45h-41.91l-20.96,36.3,20.96,36.3h41.91l20.96-36.3-20.96-36.3h0Z"/><path class="n" d="M246.02,121.89l35.11,60.81-35.11,60.81h-70.21l-35.11-60.81,35.11-60.81h70.21m.84-1.45h-71.89l-35.94,62.26,35.94,62.26h71.89l35.94-62.26-35.94-62.26h0Z"/></g><g id="e"><text class="l" transform="translate(186.38 199.89)"><tspan x="0" y="0">2.</tspan></text><text class="l" transform="translate(206.48 165.02)"><tspan x="0" y="0">3.</tspan></text><text class="h" transform="translate(165.24 160.89)"><tspan x="0" y="0">4.</tspan></text><text class="l" transform="translate(249.77 164.07)"><tspan x="0" y="0">5.</tspan></text><text class="l" transform="translate(248.48 209.55)"><tspan x="0" y="0">6.</tspan></text><text class="l" transform="translate(207.11 210.44)"><tspan x="0" y="0">1.</tspan></text></g></g></svg>